<?xml version="1.0" encoding="UTF-8"?>
<svg viewBox="0 0 460 460" version="1.1" xmlns="http://www.w3.org/2000/svg">
    <path d="M230,460 C357.025499,460 460,357.025499 460,230 C460,102.974501 357.025499,0 230,0 C102.974501,0 0,102.974501 0,230 C0,357.025499 102.974501,460 230,460 Z" fill="#499EF9"></path>
    <g fill="#FFFFFF">
        <path d="M121.760669,248.580974 L121.760669,180.367154 L103.34912,180.367154 L103.34912,247.77371 C103.34912,259.748128 100.930084,263.784448 92.4634595,263.784448 C83.7280532,263.784448 81.5777993,259.613584 81.5777993,247.77371 L81.5777993,180.367154 L62.6286871,180.367154 L62.6286871,248.580974 C62.6286871,259.613584 63.4350323,268.897121 69.751403,274.682514 C74.1863016,278.853379 81.5777993,281.275171 92.0602869,281.275171 C102.945947,281.275171 110.471836,278.584291 114.906734,274.413426 C121.088714,268.628033 121.760669,259.344496 121.760669,248.580974 Z M154.501643,180.367154 L135.686922,180.367154 L135.686922,280.064275 L154.501643,280.064275 L154.501643,180.367154 Z M187.645791,255.980895 L194.230943,241.181053 L207.535639,280.064275 L227.559878,280.064275 L206.729294,219.788553 L226.350361,180.367154 L206.326122,180.367154 L187.645791,220.461273 L187.645791,180.367154 L169.099851,180.367154 L169.099851,280.064275 L187.645791,280.064275 L187.645791,255.980895 Z M312.617087,235.214235 C312.617087,225.527066 313.826605,221.490745 321.083711,221.490745 C326.728128,221.490745 328.072037,223.374361 328.072037,233.599707 L328.072037,280.959203 L346.349194,280.959203 L346.349194,226.872506 C346.349194,219.203497 345.408458,213.149016 342.048687,208.978151 C339.360869,205.749094 335.329143,203.865478 326.593737,203.865478 C318.530285,203.865478 312.885869,205.883638 310.466833,209.247239 L309.526097,204.807286 L294.47432,205.749094 L294.47432,280.959203 L312.617087,280.959203 L312.617087,235.214235 Z M257.209863,202.97055 C247.802503,202.97055 241.620523,205.795975 237.588797,209.966839 C230.869254,216.828584 230.062908,227.861194 230.062908,241.853773 C230.062908,256.249983 231.003644,267.551681 238.12636,274.278882 C242.158086,278.180659 248.071285,280.736995 257.209863,280.736995 C266.348442,280.736995 272.396031,278.046115 276.293367,274.009794 C283.281692,267.282593 284.222428,256.115439 284.222428,241.853773 C284.222428,227.995738 283.416083,216.963128 276.965321,210.101383 C272.933595,205.930519 266.751615,202.97055 257.209863,202.97055 Z M257.209863,264.322625 C249.012021,264.322625 248.340066,258.940864 248.340066,242.526493 C248.340066,225.977578 249.012021,220.595817 257.209863,220.595817 C265.138925,220.595817 265.810879,225.977578 265.810879,242.526493 C265.810879,258.940864 265.138925,264.322625 257.209863,264.322625 Z M363.097656,280.959203 L381.240423,280.959203 L381.240423,221.087113 L394.141946,221.087113 L394.141946,204.807286 L381.240423,204.807286 L381.240423,201.309142 C381.240423,196.465557 382.31555,194.851028 388.900703,194.716484 L394.141946,194.716484 L394.141946,178.302114 C392.932429,178.16757 390.782175,178.033026 387.691185,178.033026 C370.085981,178.033026 363.097656,184.222051 363.097656,198.887349 L363.097656,204.807286 L353.824686,204.807286 L353.824686,221.087113 L363.097656,221.087113 L363.097656,280.959203 Z"></path>
    </g>
</svg>